# xmcd
#
# Track frame offsets: 
#        150
#        17418
#        34993
#        51848
#        63913
#        76428
#        87288
#        98313
#        113160
#        128465
#
# Disc length: 1855 seconds
#
# Revision: 2
# Processed by: cddbd v1.5.2PL0 Copyright (c) Steve Scherf et al.
# Submitted via: ExactAudioCopyFreeDBPlugin 1.0
#
DISCID=6c073d0a
DTITLE=Johnny Lee - New Directions
DYEAR=1989
DGENRE=Country
TTITLE0=You Can't Fly Like An Eagle
TTITLE1=I Can Be A Heartbreaker, Too
TTITLE2=Cross My Heart
TTITLE3=Maybe I Won't Love You Anymore
TTITLE4=The Anniversary Song
TTITLE5=Heart To Heart Talk
TTITLE6=Treat Her Like A Lady
TTITLE7=I'm Not Over You
TTITLE8=By-Pass Row
TTITLE9=Anni
EXTD=
EXTT0=
EXTT1=
EXTT2=
EXTT3=
EXTT4=
EXTT5=
EXTT6=
EXTT7=
EXTT8=
EXTT9=
PLAYORDER=
